<svg id="Layer_1" data-name="Layer 1" xmlns="http://www.w3.org/2000/svg" xmlns:xlink="http://www.w3.org/1999/xlink" viewBox="0 0 333.81 329.05"><defs><style>.cls-1{fill:#fff;}.cls-2{fill:url(#Gradiente_sem_nome_22);}.cls-3{fill:url(#Nova_amostra_de_gradiente_4);}.cls-4{fill:url(#Nova_amostra_de_gradiente_4-2);}.cls-5{fill:url(#Gradiente_sem_nome_5);}.cls-6{fill:url(#Nova_amostra_de_gradiente_4-3);}.cls-7{fill:url(#Gradiente_sem_nome_71);}.cls-8{fill:url(#Nova_amostra_de_gradiente_4-4);}.cls-9{fill:url(#Nova_amostra_de_gradiente_4-5);}.cls-10{fill:url(#Nova_amostra_de_gradiente_4-6);}.cls-11{fill:url(#Gradiente_sem_nome_73);}.cls-12{fill:url(#Gradiente_sem_nome_71-2);}.cls-13{fill:url(#Gradiente_sem_nome_71-3);}</style><radialGradient id="Gradiente_sem_nome_22" cx="416.31" cy="297.41" r="164.4" gradientTransform="translate(-1.46 -0.16) scale(1.01 1)" gradientUnits="userSpaceOnUse"><stop offset="0" stop-color="#243060"/><stop offset="0.26" stop-color="#303b68"/><stop offset="0.54" stop-color="#424c75"/><stop offset="0.57" stop-color="#3b4570"/><stop offset="0.65" stop-color="#2e3a69"/><stop offset="0.76" stop-color="#273464"/><stop offset="1" stop-color="#253263"/></radialGradient><linearGradient id="Nova_amostra_de_gradiente_4" x1="421.96" y1="353.57" x2="536.57" y2="353.57" gradientUnits="userSpaceOnUse"><stop offset="0" stop-color="#7886ab"/><stop offset="0.47" stop-color="#667393"/><stop offset="1" stop-color="#4f5b74"/></linearGradient><linearGradient id="Nova_amostra_de_gradiente_4-2" x1="306.01" y1="240.03" x2="420.2" y2="240.03" xlink:href="#Nova_amostra_de_gradiente_4"/><linearGradient id="Gradiente_sem_nome_5" x1="306.47" y1="354.89" x2="421.96" y2="354.89" gradientUnits="userSpaceOnUse"><stop offset="0" stop-color="#d37d23"/><stop offset="0.51" stop-color="#da9238"/><stop offset="1" stop-color="#d37d23"/></linearGradient><linearGradient id="Nova_amostra_de_gradiente_4-3" x1="283.43" y1="413.28" x2="330.06" y2="413.28" xlink:href="#Nova_amostra_de_gradiente_4"/><linearGradient id="Gradiente_sem_nome_71" x1="420.2" y1="238.72" x2="535.3" y2="238.72" xlink:href="#Gradiente_sem_nome_5"/><linearGradient id="Nova_amostra_de_gradiente_4-4" x1="511.79" y1="181.61" x2="557.91" y2="181.61" xlink:href="#Nova_amostra_de_gradiente_4"/><linearGradient id="Nova_amostra_de_gradiente_4-5" x1="514.51" y1="411.24" x2="560.03" y2="411.24" xlink:href="#Nova_amostra_de_gradiente_4"/><linearGradient id="Nova_amostra_de_gradiente_4-6" x1="282.44" y1="183.38" x2="328.09" y2="183.38" xlink:href="#Nova_amostra_de_gradiente_4"/><linearGradient id="Gradiente_sem_nome_73" x1="297.69" y1="195.72" x2="337.91" y2="195.72" xlink:href="#Gradiente_sem_nome_5"/><linearGradient id="Gradiente_sem_nome_71-2" x1="384.45" y1="297.64" x2="457.44" y2="297.64" xlink:href="#Gradiente_sem_nome_5"/><linearGradient id="Gradiente_sem_nome_71-3" x1="503.83" y1="398.52" x2="544.07" y2="398.52" xlink:href="#Gradiente_sem_nome_5"/></defs><title>logo-tag-top</title><path class="cls-1" d="M357,209.43A108.85,108.85,0,0,1,509.06,233.7c35.32,48.49,24.53,116.61-24.18,152.06-48.45,35.36-116.69,24.58-152.06-24.09A109.08,109.08,0,0,1,357,209.43Z" transform="translate(-254.04 -133.11)"/><path class="cls-2" d="M420.94,133.11c-92.18,0-166.9,73.67-166.9,164.53s74.72,164.53,166.9,164.53,166.91-73.66,166.91-164.53S513.13,133.11,420.94,133.11Zm1,269.7c-58,.47-106.14-46.93-106.6-104.94S362.21,191.76,420.2,191.26,526.25,238.06,526.84,296C527.43,354,480.07,402.33,422,402.81Z" transform="translate(-254.04 -133.11)"/><path class="cls-3" d="M422,402.81a167.61,167.61,0,0,0,54.67,8.68,165.4,165.4,0,0,0,52-8.83,167.29,167.29,0,0,0-1.78-107A169.55,169.55,0,0,1,422,402.81Z" transform="translate(-254.04 -133.11)"/><path class="cls-4" d="M420.2,191.26a166.44,166.44,0,0,0-106.22.27,167.85,167.85,0,0,0-8,52.16,170.39,170.39,0,0,0,9.29,53.68A169.52,169.52,0,0,1,420.2,191.26Z" transform="translate(-254.04 -133.11)"/><path class="cls-5" d="M315.3,297.37a170.27,170.27,0,0,0-8.83,55,168,168,0,0,0,8.83,52.07A166.73,166.73,0,0,0,422,402.81,169.8,169.8,0,0,1,315.3,297.37Z" transform="translate(-254.04 -133.11)"/><path class="cls-6" d="M283.43,390.91a166.88,166.88,0,0,0,46.63,44.74,140.34,140.34,0,0,1-14.76-31.21c-5.09-1.73-10.48-3.75-16.1-6.13S288.25,393.4,283.43,390.91Z" transform="translate(-254.04 -133.11)"/><path class="cls-7" d="M420.2,191.26A169.39,169.39,0,0,1,526.86,295.63a169.32,169.32,0,0,0,8.44-53.82,165.75,165.75,0,0,0-8.88-52,166,166,0,0,0-52.12-8A169.11,169.11,0,0,0,420.2,191.26Z" transform="translate(-254.04 -133.11)"/><path class="cls-8" d="M557.91,203.6a151.66,151.66,0,0,0-46.12-44,115.43,115.43,0,0,1,14.63,30.16c5,1.61,10.37,3.62,16.07,6.12A170.27,170.27,0,0,1,557.91,203.6Z" transform="translate(-254.04 -133.11)"/><path class="cls-9" d="M514.51,433.87A166.51,166.51,0,0,0,560,388.62c-4.69,2.57-9.85,5.16-15.46,7.67s-10.92,4.59-15.93,6.37a138.42,138.42,0,0,1-6.17,16.21A136.17,136.17,0,0,1,514.51,433.87Z" transform="translate(-254.04 -133.11)"/><path class="cls-10" d="M328.09,160.91a158.31,158.31,0,0,0-45.65,45c4.68-2.64,9.86-5.32,15.55-7.89s11-4.67,16-6.44a126.8,126.8,0,0,1,14.11-30.62Z" transform="translate(-254.04 -133.11)"/><path class="cls-1" d="M538.57,182.23a20.12,20.12,0,1,1-28.11-4.46A20.15,20.15,0,0,1,538.57,182.23Z" transform="translate(-254.04 -133.11)"/><path class="cls-1" d="M335.76,388.36a20.13,20.13,0,1,1-28.11-4.43A20.09,20.09,0,0,1,335.76,388.36Z" transform="translate(-254.04 -133.11)"/><path class="cls-11" d="M306,179.44a20.12,20.12,0,1,1-4.44,28.11A20.14,20.14,0,0,1,306,179.44Z" transform="translate(-254.04 -133.11)"/><path class="cls-12" d="M399.52,268.08a36.5,36.5,0,1,1-8.1,51A36.47,36.47,0,0,1,399.52,268.08Z" transform="translate(-254.04 -133.11)"/><path class="cls-13" d="M512.16,382.25a20.1,20.1,0,1,1-4.5,28.08A20.13,20.13,0,0,1,512.16,382.25Z" transform="translate(-254.04 -133.11)"/></svg>