<svg id="Layer_1" data-name="Layer 1" xmlns="http://www.w3.org/2000/svg" xmlns:xlink="http://www.w3.org/1999/xlink" viewBox="0 0 11.44 11.28"><defs><style>.cls-1{fill:#fff;}.cls-2{fill:url(#Gradiente_sem_nome_22);}.cls-3{fill:url(#Nova_amostra_de_gradiente_4);}.cls-4{fill:url(#Nova_amostra_de_gradiente_4-2);}.cls-5{fill:url(#Gradiente_sem_nome_5);}.cls-6{fill:url(#Nova_amostra_de_gradiente_4-3);}.cls-7{fill:url(#Gradiente_sem_nome_71);}.cls-8{fill:url(#Nova_amostra_de_gradiente_4-4);}.cls-9{fill:url(#Nova_amostra_de_gradiente_4-5);}.cls-10{fill:url(#Nova_amostra_de_gradiente_4-6);}.cls-11{fill:url(#Gradiente_sem_nome_73);}.cls-12{fill:url(#Gradiente_sem_nome_71-2);}.cls-13{fill:url(#Gradiente_sem_nome_71-3);}</style><radialGradient id="Gradiente_sem_nome_22" cx="416.31" cy="297.41" r="5.64" gradientTransform="translate(-1.46 -0.16) scale(1.01 1)" gradientUnits="userSpaceOnUse"><stop offset="0" stop-color="#243060"/><stop offset="0.26" stop-color="#303b68"/><stop offset="0.54" stop-color="#424c75"/><stop offset="0.57" stop-color="#3b4570"/><stop offset="0.65" stop-color="#2e3a69"/><stop offset="0.76" stop-color="#273464"/><stop offset="1" stop-color="#253263"/></radialGradient><linearGradient id="Nova_amostra_de_gradiente_4" x1="420.98" y1="299.56" x2="424.91" y2="299.56" gradientUnits="userSpaceOnUse"><stop offset="0" stop-color="#7886ab"/><stop offset="0.47" stop-color="#667393"/><stop offset="1" stop-color="#4f5b74"/></linearGradient><linearGradient id="Nova_amostra_de_gradiente_4-2" x1="417" y1="295.67" x2="420.92" y2="295.67" xlink:href="#Nova_amostra_de_gradiente_4"/><linearGradient id="Gradiente_sem_nome_5" x1="417.02" y1="299.6" x2="420.98" y2="299.6" gradientUnits="userSpaceOnUse"><stop offset="0" stop-color="#d37d23"/><stop offset="0.51" stop-color="#da9238"/><stop offset="1" stop-color="#d37d23"/></linearGradient><linearGradient id="Nova_amostra_de_gradiente_4-3" x1="416.23" y1="301.6" x2="417.83" y2="301.6" xlink:href="#Nova_amostra_de_gradiente_4"/><linearGradient id="Gradiente_sem_nome_71" x1="420.92" y1="295.62" x2="424.87" y2="295.62" xlink:href="#Gradiente_sem_nome_5"/><linearGradient id="Nova_amostra_de_gradiente_4-4" x1="424.06" y1="293.66" x2="425.64" y2="293.66" xlink:href="#Nova_amostra_de_gradiente_4"/><linearGradient id="Nova_amostra_de_gradiente_4-5" x1="424.15" y1="301.53" x2="425.71" y2="301.53" xlink:href="#Nova_amostra_de_gradiente_4"/><linearGradient id="Nova_amostra_de_gradiente_4-6" x1="416.2" y1="293.72" x2="417.76" y2="293.72" xlink:href="#Nova_amostra_de_gradiente_4"/><linearGradient id="Gradiente_sem_nome_73" x1="416.72" y1="294.15" x2="418.1" y2="294.15" xlink:href="#Gradiente_sem_nome_5"/><linearGradient id="Gradiente_sem_nome_71-2" x1="419.69" y1="297.64" x2="422.2" y2="297.64" xlink:href="#Gradiente_sem_nome_5"/><linearGradient id="Gradiente_sem_nome_71-3" x1="423.79" y1="301.1" x2="425.17" y2="301.1" xlink:href="#Gradiente_sem_nome_5"/></defs><title>logo-tag-rodape</title><path class="cls-1" d="M418.75,294.62a3.73,3.73,0,1,1-.83,5.22A3.74,3.74,0,0,1,418.75,294.62Z" transform="translate(-415.22 -292)"/><path class="cls-2" d="M420.94,292a5.64,5.64,0,1,0,5.73,5.64A5.68,5.68,0,0,0,420.94,292Zm0,9.25a3.63,3.63,0,1,1,3.6-3.67A3.64,3.64,0,0,1,421,301.25Z" transform="translate(-415.22 -292)"/><path class="cls-3" d="M421,301.25a5.81,5.81,0,0,0,1.87.29,5.55,5.55,0,0,0,1.79-.3,5.54,5.54,0,0,0,.27-1.79,5.85,5.85,0,0,0-.33-1.88A5.83,5.83,0,0,1,421,301.25Z" transform="translate(-415.22 -292)"/><path class="cls-4" d="M420.92,294a5.71,5.71,0,0,0-1.86-.29,5.83,5.83,0,0,0-1.78.3,5.93,5.93,0,0,0-.28,1.79,6.17,6.17,0,0,0,.32,1.84A5.81,5.81,0,0,1,420.92,294Z" transform="translate(-415.22 -292)"/><path class="cls-5" d="M417.32,297.63a6.18,6.18,0,0,0-.3,1.89,5.83,5.83,0,0,0,.3,1.78,5.63,5.63,0,0,0,1.79.27,5.78,5.78,0,0,0,1.87-.32A5.83,5.83,0,0,1,417.32,297.63Z" transform="translate(-415.22 -292)"/><path class="cls-6" d="M416.23,300.84a6.14,6.14,0,0,0,.72.84,5.67,5.67,0,0,0,.88.69,4.84,4.84,0,0,1-.29-.52,5.72,5.72,0,0,1-.22-.55l-.55-.21Z" transform="translate(-415.22 -292)"/><path class="cls-7" d="M420.92,294a5.84,5.84,0,0,1,3.66,3.58,6.21,6.21,0,0,0,.29-1.84,5.85,5.85,0,0,0-.31-1.79,5.54,5.54,0,0,0-1.79-.27A5.94,5.94,0,0,0,420.92,294Z" transform="translate(-415.22 -292)"/><path class="cls-8" d="M425.64,294.42a5.51,5.51,0,0,0-.58-.71,5.28,5.28,0,0,0-1-.8,4.27,4.27,0,0,1,.28.49,3.62,3.62,0,0,1,.22.54l.55.21C425.31,294.24,425.48,294.33,425.64,294.42Z" transform="translate(-415.22 -292)"/><path class="cls-9" d="M424.15,302.31a5.57,5.57,0,0,0,1.56-1.55,4.37,4.37,0,0,1-.53.26,5.6,5.6,0,0,1-.54.22c-.06.17-.12.36-.21.56S424.24,302.16,424.15,302.31Z" transform="translate(-415.22 -292)"/><path class="cls-10" d="M417.76,293a6.31,6.31,0,0,0-.86.69,4.79,4.79,0,0,0-.7.85c.16-.09.33-.18.53-.27l.55-.22a4.23,4.23,0,0,1,.21-.54A4.73,4.73,0,0,1,417.76,293Z" transform="translate(-415.22 -292)"/><path class="cls-1" d="M425,293.68a.7.7,0,0,1-.16,1,.69.69,0,0,1-1-.16.7.7,0,0,1,.15-1A.71.71,0,0,1,425,293.68Z" transform="translate(-415.22 -292)"/><path class="cls-1" d="M418,300.75a.69.69,0,0,1-1.11.81.69.69,0,0,1,.15-1A.68.68,0,0,1,418,300.75Z" transform="translate(-415.22 -292)"/><path class="cls-11" d="M417,293.59a.69.69,0,1,1,.81,1.11.68.68,0,0,1-1-.15A.69.69,0,0,1,417,293.59Z" transform="translate(-415.22 -292)"/><path class="cls-12" d="M420.21,296.63a1.25,1.25,0,1,1-.28,1.75A1.25,1.25,0,0,1,420.21,296.63Z" transform="translate(-415.22 -292)"/><path class="cls-13" d="M424.07,300.54a.69.69,0,0,1,.81,1.12.69.69,0,0,1-1-.16A.68.68,0,0,1,424.07,300.54Z" transform="translate(-415.22 -292)"/></svg>